<svg xmlns="http://www.w3.org/2000/svg" xmlns:xlink="http://www.w3.org/1999/xlink" width="30" height="30" viewBox="0 0 30 30">
  <defs>
    <clipPath id="clip-path">
      <path id="Blacklist" d="M8,12H1.333A1.487,1.487,0,0,1,0,10.667V3.125C0,3.039.053,3,.157,3H2.6A.4.4,0,0,0,3,2.6V.157A.137.137,0,0,1,3.151,0H8A1.487,1.487,0,0,1,9.333,1.333v9.334A1.487,1.487,0,0,1,8,12ZM2.378,9a.4.4,0,0,0-.277.089.3.3,0,0,0-.1.233.332.332,0,0,0,.1.245.374.374,0,0,0,.277.1H4.289a.385.385,0,0,0,.264-.1.315.315,0,0,0,.113-.245.284.284,0,0,0-.113-.233A.413.413,0,0,0,4.289,9ZM2.363,7.333a.356.356,0,0,0-.266.1.329.329,0,0,0,0,.467.356.356,0,0,0,.266.1H6.97a.367.367,0,0,0,.255-.1.3.3,0,0,0,0-.467.367.367,0,0,0-.255-.1Zm0-1.667a.381.381,0,0,0-.266.089.3.3,0,0,0-.1.233.339.339,0,0,0,.1.245.356.356,0,0,0,.266.1H6.97a.367.367,0,0,0,.255-.1.32.32,0,0,0,.109-.245.287.287,0,0,0-.109-.233.393.393,0,0,0-.255-.089ZM2.363,4a.381.381,0,0,0-.266.089.3.3,0,0,0-.1.233.339.339,0,0,0,.1.245.356.356,0,0,0,.266.1H6.97a.367.367,0,0,0,.255-.1.32.32,0,0,0,.109-.245.287.287,0,0,0-.109-.233A.393.393,0,0,0,6.97,4ZM2.057,2.213H.6a.143.143,0,0,1-.144-.1A.119.119,0,0,1,.5,1.953L1.953.469A.167.167,0,0,1,2.048.438a.219.219,0,0,1,.075.017A.142.142,0,0,1,2.213.6V2.057A.137.137,0,0,1,2.057,2.213Z" fill="#fff"/>
    </clipPath>
  </defs>
  <g id="Group_28" data-name="Group 28" transform="translate(-8)">
    <rect id="Rectangle_2" data-name="Rectangle 2" width="30" height="30" rx="15" transform="translate(8)" fill="#ff8c00"/>
    <g id="Icons_blacklist" data-name="Icons/blacklist" transform="translate(18 9)">
      <path id="Blacklist-2" data-name="Blacklist" d="M8,12H1.333A1.487,1.487,0,0,1,0,10.667V3.125C0,3.039.053,3,.157,3H2.6A.4.4,0,0,0,3,2.6V.157A.137.137,0,0,1,3.151,0H8A1.487,1.487,0,0,1,9.333,1.333v9.334A1.487,1.487,0,0,1,8,12ZM2.378,9a.4.4,0,0,0-.277.089.3.3,0,0,0-.1.233.332.332,0,0,0,.1.245.374.374,0,0,0,.277.1H4.289a.385.385,0,0,0,.264-.1.315.315,0,0,0,.113-.245.284.284,0,0,0-.113-.233A.413.413,0,0,0,4.289,9ZM2.363,7.333a.356.356,0,0,0-.266.1.329.329,0,0,0,0,.467.356.356,0,0,0,.266.1H6.97a.367.367,0,0,0,.255-.1.3.3,0,0,0,0-.467.367.367,0,0,0-.255-.1Zm0-1.667a.381.381,0,0,0-.266.089.3.3,0,0,0-.1.233.339.339,0,0,0,.1.245.356.356,0,0,0,.266.1H6.97a.367.367,0,0,0,.255-.1.32.32,0,0,0,.109-.245.287.287,0,0,0-.109-.233.393.393,0,0,0-.255-.089ZM2.363,4a.381.381,0,0,0-.266.089.3.3,0,0,0-.1.233.339.339,0,0,0,.1.245.356.356,0,0,0,.266.1H6.97a.367.367,0,0,0,.255-.1.32.32,0,0,0,.109-.245.287.287,0,0,0-.109-.233A.393.393,0,0,0,6.97,4ZM2.057,2.213H.6a.143.143,0,0,1-.144-.1A.119.119,0,0,1,.5,1.953L1.953.469A.167.167,0,0,1,2.048.438a.219.219,0,0,1,.075.017A.142.142,0,0,1,2.213.6V2.057A.137.137,0,0,1,2.057,2.213Z" fill="#fff"/>
    </g>
  </g>
</svg>
