<svg xmlns="http://www.w3.org/2000/svg" width="24" height="24" viewBox="0 0 24 24">
  <path id="Shape" d="M12,24A12,12,0,0,1,3.515,3.515a12,12,0,1,1,16.97,16.97A11.922,11.922,0,0,1,12,24ZM7.65,6.07a.421.421,0,0,0-.3.123L6.193,7.356a.429.429,0,0,0,0,.6l4.066,4.019L6.2,16.05a.427.427,0,0,0,0,.6l1.157,1.163a.432.432,0,0,0,.3.123.41.41,0,0,0,.3-.123L12,13.757l4.045,4.05a.437.437,0,0,0,.3.123.415.415,0,0,0,.3-.123L17.8,16.645a.414.414,0,0,0,.123-.3.425.425,0,0,0-.123-.3l-4.05-4.065,4.066-4.019a.43.43,0,0,0,0-.6L16.661,6.193a.427.427,0,0,0-.6,0l-4.055,4-4.055-4A.421.421,0,0,0,7.65,6.07Z" transform="translate(0 0)" fill="#b5bbc6"/>
</svg>
