<svg xmlns="http://www.w3.org/2000/svg" xmlns:xlink="http://www.w3.org/1999/xlink" width="30" height="30" viewBox="0 0 30 30">
  <defs>
    <clipPath id="clip-path">
      <path id="Friends" d="M9.753,13.333A3.334,3.334,0,1,1,13.086,10,3.337,3.337,0,0,1,9.753,13.333ZM8.4,9.595a.5.5,0,1,0,0,1h1v1a.5.5,0,1,0,1,0v-1h1a.5.5,0,1,0,0-1h-1v-1a.5.5,0,0,0-1,0v1ZM5.548,11.334H0c0-2.04,1.435-2.453,2.7-2.817.777-.224,1.448-.418,1.633-.961V6.61a2.461,2.461,0,0,1-.9-1.393c-.1-.008-.428-.09-.517-.772a.553.553,0,0,1,.228-.566l0,0a2.766,2.766,0,0,1-.251-1.041,2.911,2.911,0,0,1,.679-2A2.845,2.845,0,0,1,5.778,0,1.543,1.543,0,0,1,7.222.708c.7,0,1.444.559,1.444,2.125a2.479,2.479,0,0,1-.255,1.046.552.552,0,0,1,.229.566c-.09.685-.419.764-.517.772a2.12,2.12,0,0,1-.411.892A4.218,4.218,0,0,0,5.3,9.916a4.166,4.166,0,0,0,.251,1.416Z" fill="#fff"/>
    </clipPath>
  </defs>
  <g id="Group_27" data-name="Group 27" transform="translate(-8)">
    <rect id="Rectangle_2" data-name="Rectangle 2" width="30" height="30" rx="15" transform="translate(8)" fill="rgba(126,211,33,0.84)"/>
    <g id="Icons_find_friends" data-name="Icons/find friends" transform="translate(16 8)">
      <path id="Friends-2" data-name="Friends" d="M9.753,13.333A3.334,3.334,0,1,1,13.086,10,3.337,3.337,0,0,1,9.753,13.333ZM8.4,9.595a.5.5,0,1,0,0,1h1v1a.5.5,0,1,0,1,0v-1h1a.5.5,0,1,0,0-1h-1v-1a.5.5,0,0,0-1,0v1ZM5.548,11.334H0c0-2.04,1.435-2.453,2.7-2.817.777-.224,1.448-.418,1.633-.961V6.61a2.461,2.461,0,0,1-.9-1.393c-.1-.008-.428-.09-.517-.772a.553.553,0,0,1,.228-.566l0,0a2.766,2.766,0,0,1-.251-1.041,2.911,2.911,0,0,1,.679-2A2.845,2.845,0,0,1,5.778,0,1.543,1.543,0,0,1,7.222.708c.7,0,1.444.559,1.444,2.125a2.479,2.479,0,0,1-.255,1.046.552.552,0,0,1,.229.566c-.09.685-.419.764-.517.772a2.12,2.12,0,0,1-.411.892A4.218,4.218,0,0,0,5.3,9.916a4.166,4.166,0,0,0,.251,1.416Z" fill="#fff"/>
    </g>
  </g>
</svg>
