<svg id="Group_24" data-name="Group 24" xmlns="http://www.w3.org/2000/svg" xmlns:xlink="http://www.w3.org/1999/xlink" width="30" height="30" viewBox="0 0 30 30">
  <defs>
    <clipPath id="clip-path">
      <path id="Groups" d="M6.223,10.667c0-2.222,2.222-1.778,2.667-2.981V7.119c-1.61,0-2.056-.662-2.056-.662.841-.7-.749-5.567,2.114-5.567A1.346,1.346,0,0,1,9.833.445c3.5,0,1.922,5.286,2.827,6.029,0,0-.375.64-1.993.64v.572c.445,1.2,2.667.759,2.667,2.981ZM0,10.667C0,7.111,2.667,8.445,3.111,7.111V6.223A2.327,2.327,0,0,1,2.279,4.91c-.157-.012-.4-.157-.477-.726a.522.522,0,0,1,.211-.533C1.526,1.722,1.774.041,4.2,0A1.429,1.429,0,0,1,5.45.454,1.281,1.281,0,0,1,6.567,1.633a7.607,7.607,0,0,0-.339,2.6,4.6,4.6,0,0,1-.063.677,2.327,2.327,0,0,1-.832,1.312v.888c.211.636.93.666,1.622.909a2.758,2.758,0,0,0-1.622,2.647Z" fill="#fff"/>
    </clipPath>
  </defs>
  <rect id="Rectangle_2" data-name="Rectangle 2" width="30" height="30" rx="15" fill="#5856d6"/>
  <g id="Icons_groups" data-name="Icons/groups" transform="translate(8 10)">
    <path id="Groups-2" data-name="Groups" d="M6.223,10.667c0-2.222,2.222-1.778,2.667-2.981V7.119c-1.61,0-2.056-.662-2.056-.662.841-.7-.749-5.567,2.114-5.567A1.346,1.346,0,0,1,9.833.445c3.5,0,1.922,5.286,2.827,6.029,0,0-.375.64-1.993.64v.572c.445,1.2,2.667.759,2.667,2.981ZM0,10.667C0,7.111,2.667,8.445,3.111,7.111V6.223A2.327,2.327,0,0,1,2.279,4.91c-.157-.012-.4-.157-.477-.726a.522.522,0,0,1,.211-.533C1.526,1.722,1.774.041,4.2,0A1.429,1.429,0,0,1,5.45.454,1.281,1.281,0,0,1,6.567,1.633a7.607,7.607,0,0,0-.339,2.6,4.6,4.6,0,0,1-.063.677,2.327,2.327,0,0,1-.832,1.312v.888c.211.636.93.666,1.622.909a2.758,2.758,0,0,0-1.622,2.647Z" fill="#fff"/>
  </g>
</svg>
