<svg id="home" xmlns="http://www.w3.org/2000/svg" width="20" height="20" viewBox="0 0 20 20">
  <path id="Shape" d="M16.111,20H12.778a.556.556,0,0,1-.556-.555V12.778a.556.556,0,0,0-.555-.556H8.333a.556.556,0,0,0-.555.556v6.666A.556.556,0,0,1,7.222,20H3.889a2.781,2.781,0,0,1-2.777-2.777V8.6l-.2.167a.556.556,0,0,1-.782-.076A.555.555,0,0,1,.2,7.9L9.647.127a.555.555,0,0,1,.707,0L19.8,7.9a.555.555,0,0,1-.353.984.557.557,0,0,1-.353-.126l-.2-.167v8.627A2.781,2.781,0,0,1,16.111,20ZM8.333,11.111h3.334a1.669,1.669,0,0,1,1.667,1.667v6.111h2.777a1.669,1.669,0,0,0,1.667-1.667V7.778a.6.6,0,0,1,.007-.091L10,1.275,2.215,7.687a.6.6,0,0,1,.007.091v9.445a1.669,1.669,0,0,0,1.667,1.667H6.666V12.778A1.669,1.669,0,0,1,8.333,11.111Z" transform="translate(0 0)" fill="#ACB1C0"/>
</svg>
