<svg xmlns="http://www.w3.org/2000/svg" width="45.895" height="36.923" viewBox="0 0 45.895 36.923">
  <path id="logo" d="M42.942,36.923h-40A2.681,2.681,0,0,1,.608,35.736c-.814-1.215-.815-3.122,0-5.1L4,22.35a5.972,5.972,0,0,1,4.965-3.728h3.781l0,.006a40.291,40.291,0,0,0,3.24,4.548c1.733,2.081,4.282,4.567,6.579,4.6a2.43,2.43,0,0,0,.35.026,2.207,2.207,0,0,0,.321-.022l1.5.008h.016l-1.345-.011a6.148,6.148,0,0,0,3.173-1.421,27.779,27.779,0,0,0,6.507-7.729h3.83a5.975,5.975,0,0,1,4.965,3.728l3.395,8.285c.812,1.981.811,3.887,0,5.1A2.68,2.68,0,0,1,42.942,36.923ZM22.93,24.5a1.63,1.63,0,0,1-.983-.325A21.563,21.563,0,0,1,13.613,11.49l.006,0A9.519,9.519,0,1,1,32.2,11.6H32.2a21.578,21.578,0,0,1-8.151,12.458c-.1.076-.205.151-.309.226A1.645,1.645,0,0,1,22.93,24.5ZM22.92,5.128a4.337,4.337,0,1,0,4.361,4.338A4.354,4.354,0,0,0,22.92,5.128Z" transform="translate(0.004)" fill="#ff2d55"/>
</svg>
