<svg xmlns="http://www.w3.org/2000/svg" xmlns:xlink="http://www.w3.org/1999/xlink" width="30" height="30" viewBox="0 0 30 30">
  <defs>
    <clipPath id="clip-path">
      <path id="Wallet" d="M10.909,12H1.636A1.626,1.626,0,0,1,0,10.388v-8A2.392,2.392,0,0,1,2.39,0H8.411A2.392,2.392,0,0,1,10.8,2.39,1.3,1.3,0,0,1,12,3.584v7.341A1.084,1.084,0,0,1,10.909,12ZM9.818,6.027a1.086,1.086,0,1,0,1.091,1.085A1.089,1.089,0,0,0,9.818,6.027ZM2.395,1.194a1.2,1.2,0,0,0-1.2,1.2H9.6a1.2,1.2,0,0,0-1.2-1.2Z" fill="#fff"/>
    </clipPath>
  </defs>
  <g id="Group_25" data-name="Group 25" transform="translate(-8)">
    <rect id="Rectangle_2" data-name="Rectangle 2" width="30" height="30" rx="15" transform="translate(8)" fill="#fc0"/>
    <g id="Icons_wallet" data-name="Icons/wallet" transform="translate(17 9)">
      <path id="Wallet-2" data-name="Wallet" d="M10.909,12H1.636A1.626,1.626,0,0,1,0,10.388v-8A2.392,2.392,0,0,1,2.39,0H8.411A2.392,2.392,0,0,1,10.8,2.39,1.3,1.3,0,0,1,12,3.584v7.341A1.084,1.084,0,0,1,10.909,12ZM9.818,6.027a1.086,1.086,0,1,0,1.091,1.085A1.089,1.089,0,0,0,9.818,6.027ZM2.395,1.194a1.2,1.2,0,0,0-1.2,1.2H9.6a1.2,1.2,0,0,0-1.2-1.2Z" fill="#fff"/>
    </g>
  </g>
</svg>
