<svg id="bell" xmlns="http://www.w3.org/2000/svg" width="15.042" height="20" viewBox="0 0 15.042 20">
  <path id="Shape" d="M7.52,20a3.269,3.269,0,0,1-3.073-2.222H2.716A2.75,2.75,0,0,1,0,15a2.814,2.814,0,0,1,.234-1.129L1,12.1V8.889A6.671,6.671,0,0,1,5.348,2.6v-.38a2.174,2.174,0,1,1,4.346,0V2.6a6.672,6.672,0,0,1,4.345,6.287V12.1l.769,1.768a2.806,2.806,0,0,1-1.379,3.667,2.666,2.666,0,0,1-1.1.239H10.595A3.271,3.271,0,0,1,7.52,20ZM5.638,17.778a2.15,2.15,0,0,0,3.766,0ZM7.52,3.334A5.5,5.5,0,0,0,2.089,8.889v3.333l-.047.226-.815,1.876a1.705,1.705,0,0,0-.14.677,1.651,1.651,0,0,0,1.63,1.667h9.609a1.61,1.61,0,0,0,.661-.144,1.683,1.683,0,0,0,.828-2.2L13,12.448l-.047-.226V8.889A5.5,5.5,0,0,0,7.52,3.334Zm0-1.112a6.4,6.4,0,0,1,1.086.093V2.222a1.087,1.087,0,1,0-2.173,0v.093A6.365,6.365,0,0,1,7.52,2.222Z" transform="translate(0)" fill="#acb1c0"/>
</svg>
