<svg xmlns="http://www.w3.org/2000/svg" width="13.333" height="20" viewBox="0 0 13.333 20">
  <g id="_Icons_facebook_Copy" data-name="_Icons / facebook Copy" transform="translate(-0.333)">
    <path id="_11_Phone_2" data-name="11 Phone_2" d="M10.833,20H2.5A2.5,2.5,0,0,1,0,17.5V2.5A2.5,2.5,0,0,1,2.5,0h8.333a2.5,2.5,0,0,1,2.5,2.5v15A2.5,2.5,0,0,1,10.833,20ZM2.5,2.083a.417.417,0,0,0-.417.417V15.834a.417.417,0,0,0,.417.417h8.333a.417.417,0,0,0,.417-.417V2.5a.417.417,0,0,0-.417-.417Z" transform="translate(0.333 0)" fill="#ff2d55"/>
  </g>
</svg>
