<svg id="user-circle" xmlns="http://www.w3.org/2000/svg" width="20" height="20" viewBox="0 0 20 20">
  <path id="Shape" d="M10,20A10,10,0,1,1,20,10,10.011,10.011,0,0,1,10,20ZM7.962,13.567,3.88,15.423a1.484,1.484,0,0,0-.628.533,9,9,0,0,0,13.5,0,1.5,1.5,0,0,0-.627-.533l-4.082-1.857a5.007,5.007,0,0,1-4.077,0ZM10,1A9,9,0,0,0,2.615,15.146a2.538,2.538,0,0,1,.851-.635l3.457-1.57a5,5,0,1,1,6.155,0l3.457,1.57a2.517,2.517,0,0,1,.851.634A9,9,0,0,0,10,1Zm0,4a4,4,0,1,0,4,4A4,4,0,0,0,10,5Z" transform="translate(0 0)" fill="#acb1c0"/>
</svg>
