<svg id="Group_29" data-name="Group 29" xmlns="http://www.w3.org/2000/svg" width="30" height="30" viewBox="0 0 30 30">
  <rect id="Rectangle_2" data-name="Rectangle 2" width="30" height="30" rx="15"/>
  <g id="Icons_settings" data-name="Icons/settings" transform="translate(9 8)">
    <path id="_12_Settings" data-name="12 Settings" d="M6.494,13.726a7.048,7.048,0,0,1-1.246-.111.57.57,0,0,1-.468-.572V12.56a.573.573,0,0,0-.352-.526,5.481,5.481,0,0,1-1.377-.8.571.571,0,0,0-.634-.043L2,11.434a.572.572,0,0,1-.72-.126,6.633,6.633,0,0,1-.649-.9c-.059-.1-.1-.174-.139-.243a6.51,6.51,0,0,1-.461-1.02.571.571,0,0,1,.255-.679L.7,8.229a.569.569,0,0,0,.286-.571,5.521,5.521,0,0,1,0-1.589A.569.569,0,0,0,.7,5.5l-.414-.24a.573.573,0,0,1-.255-.68A6.655,6.655,0,0,1,.488,3.554c.038-.07.084-.15.14-.243a6.617,6.617,0,0,1,.649-.9A.571.571,0,0,1,2,2.291l.419.24a.573.573,0,0,0,.635-.043,5.486,5.486,0,0,1,1.374-.8.568.568,0,0,0,.363-.526V.683A.57.57,0,0,1,5.26.112a7.021,7.021,0,0,1,2.491,0A.57.57,0,0,1,8.22.683v.482a.57.57,0,0,0,.351.526,5.514,5.514,0,0,1,1.366.8.573.573,0,0,0,.635.043l.368-.211a.591.591,0,0,1,.774.091,6.725,6.725,0,0,1,.635.9c.057.093.1.173.14.243a6.666,6.666,0,0,1,.46,1.02.571.571,0,0,1-.255.686l-.36.209a.593.593,0,0,0-.334.6,5.521,5.521,0,0,1,0,1.589.568.568,0,0,0,.285.572l.418.24a.571.571,0,0,1,.254.679,6.579,6.579,0,0,1-.454,1.026c-.038.07-.084.15-.14.243a6.616,6.616,0,0,1-.649.9.57.57,0,0,1-.725.123l-.417-.243a.573.573,0,0,0-.626.043,5.469,5.469,0,0,1-1.374.8.571.571,0,0,0-.363.526v.482a.57.57,0,0,1-.468.572A7.048,7.048,0,0,1,6.494,13.726Zm0-9.434A2.572,2.572,0,1,0,9.066,6.862,2.574,2.574,0,0,0,6.494,4.291Z" fill="#fff"/>
  </g>
</svg>
