<svg xmlns="http://www.w3.org/2000/svg" width="20" height="18" viewBox="0 0 20 18">
  <path id="Shape" d="M14.5,18h-9a.5.5,0,0,1-.374-.831l4.5-5.1a.5.5,0,0,1,.75,0l4.5,5.1A.5.5,0,0,1,14.5,18ZM10,13.159,6.609,17h6.782ZM17.5,16h-1a.5.5,0,0,1,0-1h1A1.5,1.5,0,0,0,19,13.5V2.5A1.5,1.5,0,0,0,17.5,1H2.5A1.5,1.5,0,0,0,1,2.5v11c0,.817,1.485,1.494,1.5,1.5h1a.5.5,0,0,1,0,1h-1A2.5,2.5,0,0,1,0,13.5V2.5A2.5,2.5,0,0,1,2.5,0h15A2.5,2.5,0,0,1,20,2.5v11A2.5,2.5,0,0,1,17.5,16Z" transform="translate(0)" fill="#acb1c0"/>
</svg>
